<svg xmlns="http://www.w3.org/2000/svg" version="1.1" xmlns:xlink="http://www.w3.org/1999/xlink" xmlns:svgjs="http://svgjs.com/svgjs" width="1440" height="560" preserveAspectRatio="none" viewBox="0 0 1440 560"><g mask="url(&quot;#SvgjsMask1000&quot;)" fill="none"><rect width="1440" height="560" x="0" y="0" fill="#0e2a47"></rect><path d="M648.83 609.7C796.06 604.2 896.68 375.72 1186.17 367.72 1475.67 359.72 1581.03 180.11 1723.52 177.32" stroke="rgba(51,121,194,0.58)" stroke-width="2"></path><path d="M348.13 662.57C508.85 653 604.55 367.95 914.8 356.53 1225.06 345.11 1331.14 157.9 1481.48 154.93" stroke="rgba(51,121,194,0.58)" stroke-width="2"></path><path d="M613.71 634.53C767.14 611.41 848.33 247.25 1097.34 245.51 1346.34 243.77 1454.29 394.96 1580.96 396.71" stroke="rgba(51,121,194,0.58)" stroke-width="2"></path><path d="M926.9 663.61C1026.06 617.19 984.52 299.75 1169.76 299.18 1354.99 298.61 1521.28 523.09 1655.47 528.78" stroke="rgba(51,121,194,0.58)" stroke-width="2"></path><path d="M925.32 659.11C1057.39 618.17 1095.21 242.73 1285.49 239.36 1475.76 235.99 1545.79 408.51 1645.65 412.96" stroke="rgba(51,121,194,0.58)" stroke-width="2"></path></g><defs><mask id="SvgjsMask1000"><rect width="1440" height="560" fill="#ffffff"></rect></mask></defs></svg>